<svg width="46" height="55" viewBox="0 0 46 55" fill="none" xmlns="http://www.w3.org/2000/svg">
<path fill-rule="evenodd" clip-rule="evenodd" d="M0 2.96966C14.7896 -0.989885 31.2104 -0.989885 46 2.96966C46 11.7004 46 20.4311 46 29.1619C46 42.2574 22.9995 55 22.9995 55C22.9995 55 0 42.2597 0 29.1619C0 20.4311 0 11.7004 0 2.96966Z" fill="#95C12B"/>
<path d="M17.1449 11.1818V33H11.2216V16.6364H11.0938L6.32102 19.4915V14.4631L11.6903 11.1818H17.1449ZM23.9496 33H17.5576L24.7593 11.1818H32.8559L40.0576 33H33.6656L28.8928 17.1903H28.7224L23.9496 33ZM22.7565 24.392H34.7735V28.8239H22.7565V24.392Z" fill="white"/>
</svg>
