<svg width="46" height="55" viewBox="0 0 46 55" fill="none" xmlns="http://www.w3.org/2000/svg">
<path fill-rule="evenodd" clip-rule="evenodd" d="M0 2.96966C14.7896 -0.989885 31.2104 -0.989885 46 2.96966C46 11.7004 46 20.4311 46 29.1619C46 42.2574 22.9995 55 22.9995 55C22.9995 55 0 42.2597 0 29.1619C0 20.4311 0 11.7004 0 2.96966Z" fill="#95C12B"/>
<path d="M18.1449 12.1818V34H12.2216V17.6364H12.0938L7.32102 20.4915V15.4631L12.6903 12.1818H18.1449ZM20.182 34V12.1818H29.6423C31.3042 12.1818 32.6998 12.4055 33.829 12.853C34.9654 13.3004 35.8212 13.9325 36.3965 14.7493C36.9789 15.5661 37.2701 16.5284 37.2701 17.6364C37.2701 18.4389 37.0925 19.1705 36.7374 19.831C36.3894 20.4915 35.8994 21.0455 35.2673 21.4929C34.6352 21.9332 33.8965 22.2386 33.0514 22.4091V22.6222C33.9889 22.6577 34.8411 22.8956 35.6082 23.3359C36.3752 23.7692 36.986 24.3693 37.4406 25.1364C37.8951 25.8963 38.1224 26.7912 38.1224 27.821C38.1224 29.0142 37.8099 30.076 37.1849 31.0064C36.567 31.9368 35.6863 32.6683 34.5428 33.201C33.3994 33.7337 32.0357 34 30.4519 34H20.182ZM26.1053 29.2699H28.8752C29.8695 29.2699 30.6153 29.0852 31.1124 28.7159C31.6096 28.3395 31.8582 27.7855 31.8582 27.054C31.8582 26.5426 31.741 26.1094 31.5066 25.7543C31.2722 25.3991 30.9384 25.1293 30.5052 24.9446C30.079 24.7599 29.5641 24.6676 28.9604 24.6676H26.1053V29.2699ZM26.1053 21.0028H28.5343C29.0528 21.0028 29.5109 20.9212 29.9086 20.7578C30.3063 20.5945 30.6153 20.3601 30.8354 20.0547C31.0627 19.7422 31.1764 19.3622 31.1764 18.9148C31.1764 18.2401 30.9349 17.7251 30.4519 17.37C29.969 17.0078 29.3582 16.8267 28.6195 16.8267H26.1053V21.0028Z" fill="white"/>
</svg>
