<svg width="46" height="55" viewBox="0 0 46 55" fill="none" xmlns="http://www.w3.org/2000/svg">
<path fill-rule="evenodd" clip-rule="evenodd" d="M0 2.96966C14.7896 -0.989885 31.2104 -0.989885 46 2.96966C46 11.7004 46 20.4311 46 29.1619C46 42.2574 22.9995 55 22.9995 55C22.9995 55 0 42.2597 0 29.1619C0 20.4311 0 11.7004 0 2.96966Z" fill="#95C12B"/>
<path d="M14.4489 34V29.7386L22.5881 23.0057C23.1278 22.5582 23.5895 22.1392 23.973 21.7486C24.3636 21.3509 24.6619 20.9425 24.8679 20.5234C25.081 20.1044 25.1875 19.6392 25.1875 19.1278C25.1875 18.5668 25.0668 18.0874 24.8253 17.6896C24.5909 17.2919 24.2642 16.9865 23.8452 16.7734C23.4261 16.5533 22.9432 16.4432 22.3963 16.4432C21.8494 16.4432 21.3665 16.5533 20.9474 16.7734C20.5355 16.9936 20.2159 17.3168 19.9886 17.7429C19.7614 18.169 19.6477 18.6875 19.6477 19.2983H14.0227C14.0227 17.7642 14.3672 16.4432 15.0561 15.3352C15.745 14.2273 16.718 13.375 17.9751 12.7784C19.2322 12.1818 20.706 11.8835 22.3963 11.8835C24.1435 11.8835 25.6563 12.1641 26.9347 12.7251C28.2202 13.2791 29.2109 14.0604 29.907 15.0689C30.6101 16.0774 30.9616 17.2599 30.9616 18.6165C30.9616 19.4545 30.7876 20.2891 30.4396 21.12C30.0916 21.9439 29.4666 22.8565 28.5646 23.858C27.6626 24.8594 26.3807 26.0526 24.7188 27.4375L22.6733 29.142V29.2699H31.196V34H14.4489Z" fill="white"/>
</svg>
