<svg width="46" height="55" viewBox="0 0 46 55" fill="none" xmlns="http://www.w3.org/2000/svg">
<path fill-rule="evenodd" clip-rule="evenodd" d="M0 2.96966C14.7896 -0.989885 31.2104 -0.989885 46 2.96966C46 11.7004 46 20.4311 46 29.1619C46 42.2574 22.9995 55 22.9995 55C22.9995 55 0 42.2597 0 29.1619C0 20.4311 0 11.7004 0 2.96966Z" fill="#95C12B"/>
<path d="M22.9716 34.2983C21.2528 34.2983 19.7259 34.0036 18.3906 33.4141C17.0625 32.8175 16.0185 31.9972 15.2585 30.9531C14.4986 29.9091 14.1151 28.7088 14.108 27.3523H20.0739C20.081 27.7713 20.2088 28.1477 20.4574 28.4815C20.7131 28.8082 21.0611 29.0639 21.5014 29.2486C21.9418 29.4332 22.446 29.5256 23.0142 29.5256C23.5611 29.5256 24.044 29.4297 24.4631 29.2379C24.8821 29.0391 25.2088 28.7656 25.4432 28.4176C25.6776 28.0696 25.7912 27.6719 25.7841 27.2244C25.7912 26.7841 25.6563 26.3935 25.3793 26.0526C25.1094 25.7116 24.7294 25.4453 24.2393 25.2536C23.7493 25.0618 23.1847 24.9659 22.5455 24.9659H20.3295V20.875H22.5455C23.1349 20.875 23.6534 20.7791 24.1009 20.5874C24.5554 20.3956 24.907 20.1293 25.1555 19.7884C25.4112 19.4474 25.5355 19.0568 25.5284 18.6165C25.5355 18.1903 25.4325 17.8139 25.2195 17.4872C25.0064 17.1605 24.7081 16.9048 24.3246 16.7202C23.9482 16.5355 23.5114 16.4432 23.0142 16.4432C22.4744 16.4432 21.9915 16.5391 21.5653 16.7308C21.1463 16.9226 20.8161 17.1889 20.5746 17.5298C20.3331 17.8707 20.2088 18.2614 20.2017 18.7017H14.5341C14.5412 17.3665 14.907 16.1875 15.6314 15.1648C16.3629 14.142 17.3643 13.3395 18.6357 12.7571C19.907 12.1747 21.3665 11.8835 23.0142 11.8835C24.6264 11.8835 26.0504 12.157 27.2862 12.7038C28.5291 13.2507 29.4986 14.0036 30.1946 14.9624C30.8977 15.9141 31.2457 17.0043 31.2386 18.233C31.2528 19.4545 30.8338 20.456 29.9815 21.2372C29.1364 22.0185 28.0639 22.4801 26.7642 22.6222V22.7926C28.5256 22.9844 29.8501 23.5241 30.7379 24.4119C31.6257 25.2926 32.0625 26.4006 32.0483 27.7358C32.0554 29.0142 31.6719 30.147 30.8977 31.1342C30.1307 32.1214 29.0618 32.8956 27.6911 33.4567C26.3274 34.0178 24.7543 34.2983 22.9716 34.2983Z" fill="white"/>
</svg>
