<svg width="46" height="55" viewBox="0 0 46 55" fill="none" xmlns="http://www.w3.org/2000/svg">
<path fill-rule="evenodd" clip-rule="evenodd" d="M0 2.96966C14.7896 -0.989885 31.2104 -0.989885 46 2.96966C46 11.7004 46 20.4311 46 29.1619C46 42.2574 22.9995 55 22.9995 55C22.9995 55 0 42.2597 0 29.1619C0 20.4311 0 11.7004 0 2.96966Z" fill="#95C12B"/>
<path d="M23.1847 34.2983C21.5085 34.2983 20.0206 34.0036 18.7209 33.4141C17.4283 32.8175 16.4091 31.9972 15.6634 30.9531C14.9247 29.9091 14.5483 28.7088 14.5341 27.3523H20.2869C20.3082 28.1051 20.5994 28.7053 21.1605 29.1527C21.7287 29.6001 22.4034 29.8239 23.1847 29.8239C23.7884 29.8239 24.321 29.696 24.7827 29.4403C25.2443 29.1776 25.6065 28.8082 25.8693 28.3324C26.1321 27.8565 26.2599 27.3026 26.2528 26.6705C26.2599 26.0312 26.1321 25.4773 25.8693 25.0085C25.6065 24.5327 25.2443 24.1669 24.7827 23.9112C24.321 23.6484 23.7884 23.517 23.1847 23.517C22.5597 23.517 21.9808 23.6697 21.4482 23.9751C20.9226 24.2734 20.5355 24.6889 20.2869 25.2216L15.0881 24.1989L15.9403 12.1818H30.5994V16.9119H20.7983L20.3722 21.7273H20.5C20.8409 21.0668 21.4304 20.5199 22.2685 20.0866C23.1065 19.6463 24.0795 19.4261 25.1875 19.4261C26.4872 19.4261 27.6449 19.728 28.6605 20.3317C29.6832 20.9354 30.4893 21.7699 31.0788 22.8352C31.6754 23.8935 31.9702 25.1151 31.9631 26.5C31.9702 28.0199 31.608 29.3693 30.8764 30.5483C30.152 31.7202 29.1328 32.6399 27.8189 33.3075C26.505 33.968 24.9602 34.2983 23.1847 34.2983Z" fill="white"/>
</svg>
