<svg width="46" height="55" viewBox="0 0 46 55" fill="none" xmlns="http://www.w3.org/2000/svg">
<path fill-rule="evenodd" clip-rule="evenodd" d="M0 2.96966C14.7896 -0.989885 31.2104 -0.989885 46 2.96966C46 11.7004 46 20.4311 46 29.1619C46 42.2574 22.9995 55 22.9995 55C22.9995 55 0 42.2597 0 29.1619C0 20.4311 0 11.7004 0 2.96966Z" fill="#95C12B"/>
<path d="M13.1847 34.2983C11.5085 34.2983 10.0206 34.0036 8.72088 33.4141C7.42827 32.8175 6.40909 31.9972 5.66335 30.9531C4.92472 29.9091 4.5483 28.7088 4.53409 27.3523H10.2869C10.3082 28.1051 10.5994 28.7053 11.1605 29.1527C11.7287 29.6001 12.4034 29.8239 13.1847 29.8239C13.7884 29.8239 14.321 29.696 14.7827 29.4403C15.2443 29.1776 15.6065 28.8082 15.8693 28.3324C16.1321 27.8565 16.2599 27.3026 16.2528 26.6705C16.2599 26.0312 16.1321 25.4773 15.8693 25.0085C15.6065 24.5327 15.2443 24.1669 14.7827 23.9112C14.321 23.6484 13.7884 23.517 13.1847 23.517C12.5597 23.517 11.9808 23.6697 11.4482 23.9751C10.9226 24.2734 10.5355 24.6889 10.2869 25.2216L5.08807 24.1989L5.94034 12.1818H20.5994V16.9119H10.7983L10.3722 21.7273H10.5C10.8409 21.0668 11.4304 20.5199 12.2685 20.0866C13.1065 19.6463 14.0795 19.4261 15.1875 19.4261C16.4872 19.4261 17.6449 19.728 18.6605 20.3317C19.6832 20.9354 20.4893 21.7699 21.0788 22.8352C21.6754 23.8935 21.9702 25.1151 21.9631 26.5C21.9702 28.0199 21.608 29.3693 20.8764 30.5483C20.152 31.7202 19.1328 32.6399 17.8189 33.3075C16.505 33.968 14.9602 34.2983 13.1847 34.2983ZM27.7422 34H21.3502L28.5519 12.1818H36.6485L43.8502 34H37.4581L32.6854 18.1903H32.515L27.7422 34ZM26.549 25.392H38.5661V29.8239H26.549V25.392Z" fill="white"/>
</svg>
