<svg width="46" height="55" viewBox="0 0 46 55" fill="none" xmlns="http://www.w3.org/2000/svg">
<path fill-rule="evenodd" clip-rule="evenodd" d="M0 2.96966C14.7896 -0.989885 31.2104 -0.989885 46 2.96966C46 11.7004 46 20.4311 46 29.1619C46 42.2574 22.9995 55 22.9995 55C22.9995 55 0 42.2597 0 29.1619C0 20.4311 0 11.7004 0 2.96966Z" fill="#95C12B"/>
<path d="M23.5682 34.2983C22.2969 34.2983 21.0895 34.0994 19.946 33.7017C18.8097 33.2969 17.8011 32.6612 16.9205 31.7947C16.0398 30.9283 15.3473 29.799 14.843 28.407C14.3459 27.0149 14.1009 25.3281 14.108 23.3466C14.1151 21.5781 14.3423 19.9872 14.7898 18.5739C15.2443 17.1605 15.8871 15.9567 16.718 14.9624C17.5561 13.968 18.5575 13.2081 19.7223 12.6825C20.8871 12.1499 22.1832 11.8835 23.6108 11.8835C25.2159 11.8835 26.6293 12.1925 27.8509 12.8104C29.0724 13.4283 30.0455 14.2557 30.7699 15.2926C31.5014 16.3224 31.9276 17.4588 32.0483 18.7017H26.2102C26.0753 18.0838 25.7628 17.6328 25.2727 17.3487C24.7898 17.0575 24.2358 16.9119 23.6108 16.9119C22.3679 16.9119 21.4553 17.4517 20.8729 18.5312C20.2976 19.6108 20.0028 21.0312 19.9886 22.7926H20.1165C20.3935 22.125 20.8125 21.5533 21.3736 21.0774C21.9347 20.6016 22.5881 20.2358 23.3338 19.9801C24.0795 19.7244 24.8679 19.5966 25.6989 19.5966C27.0199 19.5966 28.174 19.8949 29.1612 20.4915C30.1555 21.0881 30.9297 21.9048 31.4837 22.9418C32.0376 23.9787 32.3111 25.1648 32.304 26.5C32.3111 28.0625 31.9418 29.4297 31.196 30.6016C30.4574 31.7734 29.4311 32.6825 28.1172 33.3288C26.8033 33.9751 25.2869 34.2983 23.5682 34.2983ZM23.5256 29.8239C24.1151 29.8239 24.6371 29.6889 25.0916 29.419C25.5533 29.1491 25.9119 28.7798 26.1676 28.3111C26.4304 27.8423 26.5582 27.3097 26.5511 26.7131C26.5582 26.1094 26.4304 25.5767 26.1676 25.1151C25.9119 24.6463 25.5533 24.277 25.0916 24.0071C24.6371 23.7372 24.1151 23.6023 23.5256 23.6023C23.0923 23.6023 22.6911 23.6804 22.3217 23.8366C21.9595 23.9858 21.6435 24.2024 21.3736 24.4865C21.1037 24.7635 20.8906 25.0937 20.7344 25.4773C20.5852 25.8537 20.5071 26.2656 20.5 26.7131C20.5071 27.3097 20.642 27.8423 20.9048 28.3111C21.1676 28.7798 21.5263 29.1491 21.9808 29.419C22.4354 29.6889 22.9503 29.8239 23.5256 29.8239Z" fill="white"/>
</svg>
