<svg width="340" height="162" viewBox="0 0 340 162" fill="none" xmlns="http://www.w3.org/2000/svg">
<path d="M335.86 149.615C333.668 147.138 330.502 145.404 327.823 143.917C327.58 143.67 327.093 143.422 326.849 143.422C324.901 138.468 320.273 135 314.671 134.257C311.505 128.312 304.686 121.128 302.25 118.899C299.084 113.202 296.405 109.982 293.969 106.761C291.534 103.541 289.098 100.569 285.932 95.1193C285.201 93.8807 283.74 93.1376 282.279 93.1376C281.548 93.1376 280.817 93.3853 280.087 93.633C276.921 95.6147 274.242 96.8532 271.562 98.0917C269.858 98.8349 268.153 99.578 266.204 100.569C264.499 97.1009 262.551 93.3853 259.872 90.6605C255.244 85.7064 249.156 82.2385 242.58 80.5046C240.144 75.055 236.491 70.3486 231.62 67.1284C226.505 63.6605 221.634 61.6789 216.519 61.4312C214.571 57.2202 212.623 52.7615 210.918 48.5505L209.944 46.3211C209.213 44.8349 207.752 43.5963 206.047 43.5963C206.047 43.5963 206.047 43.5963 205.803 43.5963C204.098 43.5963 202.393 43.844 200.932 43.844C200.201 43.844 199.714 43.844 198.984 44.0917C196.061 37.8991 192.408 30.7156 188.024 24.0275C187.293 22.789 185.832 22.0459 184.614 22.0459C184.127 22.0459 183.883 22.0459 183.396 22.2936C181.935 22.789 180.474 23.0367 179.012 23.5321C178.769 23.5321 178.282 23.7798 177.795 23.7798C176.577 20.0642 175.359 16.3486 173.411 12.8807C171.219 8.66972 167.809 3.46789 161.964 0.743119C161.964 0.247706 161.476 0 160.989 0C159.772 0 158.554 0.495413 157.58 1.73394C156.362 3.7156 155.144 5.69725 154.17 7.92661C153.683 7.6789 153.196 7.43119 152.709 7.18349C152.465 7.18349 152.221 7.18349 151.978 7.18349C150.76 7.18349 149.786 7.6789 149.055 8.66972C145.889 12.3853 142.966 16.3486 140.287 20.3119C136.634 25.7615 132.981 30.7156 128.84 34.6789C122.021 40.8716 115.201 48.7982 109.113 57.7156C108.869 57.4679 108.625 57.2202 108.382 56.7248C107.651 55.7339 106.433 54.9908 105.216 54.9908C104.972 54.9908 104.972 54.9908 104.729 54.9908C103.267 55.2385 102.05 55.9817 101.562 57.2202C100.101 60.1927 98.8833 63.4128 97.9091 66.633C96.4478 71.5872 94.7429 76.2936 91.5767 79.2661C87.6799 82.7339 84.0266 87.1927 81.104 92.3945C80.6169 90.9082 80.1298 89.1743 79.6427 87.6881C78.1813 82.7339 76.4765 77.7798 74.7716 72.8257C74.2845 71.5872 73.5538 70.844 72.3361 70.3486C71.849 70.1009 71.3619 70.1009 70.8747 70.1009C70.1441 70.1009 69.4134 70.3486 68.6828 70.5963C63.0811 74.0642 58.4535 78.5229 53.826 82.9817L53.0954 83.4771C48.4679 88.1835 44.571 93.8807 41.4048 101.56C40.6742 100.817 39.7 100.569 38.7257 100.569C37.2644 100.569 35.8031 101.56 35.0725 102.798C34.8289 103.294 34.5853 103.789 34.5853 104.037C34.0982 103.294 33.8547 102.55 33.6111 101.807C32.8805 100.321 31.6627 99.578 29.9578 99.578C28.4965 99.578 27.0352 100.321 26.3045 101.807C19.4851 113.945 13.8833 126.578 9.74294 139.954C8.03807 144.908 5.35899 149.862 1.21858 155.064C0.244372 156.303 0.000819147 158.037 0.731478 159.523C1.46214 161.009 2.92346 162 4.38477 162H336.104C337.322 162 338.783 161.257 339.514 160.266C340.244 159.275 340.488 157.789 340.001 156.55C339.027 154.073 337.565 151.596 335.86 149.615ZM15.1011 135.991C15.8318 133.018 16.3189 129.798 18.5108 127.817C22.1641 124.349 24.5997 119.394 24.8432 114.44C25.0868 112.706 24.8432 110.972 25.0868 109.239C25.3303 107.505 26.061 105.771 27.2788 104.532C27.2788 107.009 27.2788 108.991 27.2788 111.22C27.2788 113.945 27.7659 116.917 29.4707 119.147C28.0094 120.138 27.0352 121.624 26.7917 123.358C26.5481 125.092 27.5223 126.826 28.7401 128.064C27.7659 128.807 26.5481 128.807 25.3303 129.055L22.1641 136.486L20.9464 132.028C19.9722 134.009 18.998 136.239 17.5366 137.972C17.0495 139.211 17.0495 140.45 17.2931 141.44C17.5366 142.431 18.0237 143.67 18.2673 144.661C18.5108 146.147 18.2673 147.633 17.5366 149.119C16.806 150.605 16.3189 151.349 15.3447 152.587C15.8318 151.596 15.5882 150.358 14.8576 149.367C14.1269 148.376 13.1527 147.881 12.1785 147.138C11.2043 146.395 10.7172 144.908 10.4736 143.917C13.3962 142.183 14.3704 138.963 15.1011 135.991ZM188.998 49.5413C189.485 46.8165 190.216 43.844 189.729 41.1193C189.242 38.3945 187.78 35.6697 186.319 33.1927C189.242 34.4312 191.677 36.4128 192.895 39.3853C193.625 41.6147 193.869 44.0917 194.356 46.5688C195.817 53.5046 201.906 58.211 204.342 64.6514C205.072 66.8807 205.316 69.1101 204.829 71.3394C204.585 72.0826 204.585 72.8257 204.829 73.3211C205.072 73.8165 205.803 73.8165 206.534 74.0642C211.161 74.8073 215.789 76.5413 219.929 79.0183C220.903 82.2385 225.044 83.4771 226.505 86.6972L227.723 82.9817L228.454 96.1101C228.941 96.6055 229.671 97.1009 230.402 97.5963C231.863 98.8349 233.325 100.073 233.325 102.055C233.325 102.55 233.325 103.046 233.325 103.541C233.568 104.532 234.542 105.028 235.273 105.523C236.978 106.514 239.17 107.752 241.118 108.991C239.901 110.725 237.952 111.963 236.004 112.706C235.029 112.954 233.812 113.202 233.325 114.193C232.35 115.431 232.35 117.413 232.838 118.899C234.299 125.339 233.081 132.523 229.184 138.22C228.697 138.963 228.21 139.706 228.454 140.697C227.236 139.954 226.992 138.22 226.992 136.734C227.236 134.752 227.723 132.771 227.966 130.541C228.21 128.56 228.21 126.33 227.479 124.349C226.992 122.862 225.531 121.376 224.07 120.881C224.07 122.119 224.07 123.11 224.07 124.101C224.07 126.083 224.313 127.569 224.313 127.569C224.313 127.569 223.826 126.33 223.095 124.349C222.365 122.367 221.878 119.642 221.391 116.917C221.147 114.193 220.903 111.22 221.147 108.991C221.147 108.495 221.147 108 221.147 107.752C220.903 107.257 220.66 106.761 219.929 106.514C218.955 106.018 216.763 106.514 216.763 107.752C212.623 103.789 208.726 99.8257 205.316 95.6147C205.072 95.1193 204.585 94.8716 204.585 94.3761C204.342 93.3853 204.829 92.6422 205.56 92.1468C206.29 91.6514 207.264 91.4037 208.239 91.156C207.264 83.2294 202.88 75.5505 196.548 70.5963C195.33 69.8532 193.138 68.8624 190.946 68.1193C187.293 66.633 183.153 65.8899 183.153 65.8899C183.153 65.8899 186.075 65.1468 189.729 64.8991C188.267 60.1927 188.024 54.7431 188.998 49.5413ZM160.746 8.91743C160.502 13.3761 158.797 17.5872 155.875 21.055C155.875 22.2936 156.849 22.5413 158.067 22.789C159.285 23.0367 160.502 23.0367 161.233 24.0275C162.207 25.0183 162.207 26.7523 161.72 27.9908C160.989 29.2294 160.015 30.2202 158.797 31.211C157.823 32.2018 156.605 32.945 155.875 34.4312C154.657 36.9083 151.004 37.8991 149.542 40.1284C148.081 42.3578 147.594 45.578 149.055 48.055C152.465 46.5688 156.605 46.5688 159.041 49.2936C161.233 52.0183 161.72 56.4771 159.772 59.4495C157.823 62.6697 161.233 68.367 164.399 70.3486C164.886 70.5963 165.13 70.844 165.373 71.3394C165.617 72.0826 164.886 72.8257 164.156 73.5688C161.476 76.0459 159.528 79.5138 159.285 83.2294C162.694 83.2294 166.348 83.4771 169.514 83.7248C170.488 83.7248 171.219 83.9725 171.949 84.4679C173.411 85.7064 172.923 87.9358 172.68 89.6697C171.949 94.6238 173.167 100.073 176.577 104.037C176.577 104.037 169.757 109.239 167.809 113.945C166.348 117.413 166.835 121.624 166.591 125.587C166.348 129.55 165.373 133.514 162.938 136.486C160.746 136.486 158.31 136.734 156.362 137.725C154.413 138.468 152.952 140.45 153.196 142.679C153.439 144.413 154.901 145.651 156.362 146.642C159.284 148.872 164.886 146.147 167.809 144.165C171.219 141.936 174.872 139.459 177.551 135.991C180.474 132.028 182.178 126.826 186.562 124.844C186.319 129.55 185.588 136.239 182.178 138.963C180.474 140.45 178.038 141.193 177.064 143.174C175.115 147.138 179.743 152.092 178.038 156.055C168.052 159.523 156.849 153.33 146.863 155.807C147.35 157.789 147.837 159.523 147.837 159.523C147.837 159.523 145.402 156.798 143.21 153.578C141.992 151.596 140.774 149.615 140.287 148.128C138.095 146.394 134.442 145.651 132.007 145.404C129.084 144.908 126.161 145.899 123.482 144.413C120.803 143.174 119.098 140.202 119.098 137.477C119.098 134.752 120.316 132.275 122.264 130.541C123.969 128.56 126.405 127.321 128.597 126.083C130.789 124.844 130.058 121.872 128.84 119.642C128.353 118.651 127.623 117.908 126.892 117.413L113.253 114.193L119.585 113.697C119.098 113.45 118.368 112.954 117.88 112.459C114.958 109.486 115.688 104.037 112.522 101.064C114.958 100.817 116.176 96.8532 115.932 94.6238C115.688 92.1468 114.471 90.1651 113.253 88.1835C112.522 86.9449 111.548 85.7064 111.061 84.2202L103.754 75.5505L107.895 77.5321C107.164 76.0459 106.433 74.5596 105.216 73.3211C104.485 72.3303 103.754 71.5872 103.267 70.3486C102.78 69.3578 103.024 67.8716 103.754 67.1284C104.485 66.3853 106.19 66.1376 106.677 67.3761C109.356 68.6147 112.522 68.8624 115.445 69.3578C118.368 69.6055 121.29 69.1101 123.239 66.8807C124.944 65.1468 124.944 62.1743 126.892 60.4404C127.623 59.945 127.379 58.4587 126.892 57.7156C126.405 56.9725 125.674 56.4771 124.7 56.2294C123.969 55.9817 122.995 55.7339 122.264 54.9908C121.534 54.2477 121.534 53.0092 122.264 52.5138C122.995 49.789 125.674 47.0642 127.866 45.578C130.058 44.0917 132.494 43.1009 134.686 41.367C136.878 39.633 138.582 37.156 138.582 34.4312C142.236 33.9358 146.376 31.4587 148.325 28.2385C149.786 25.5138 150.273 22.0459 151.491 19.0734L160.746 8.91743ZM39.7 117.165L41.4048 121.376C41.8919 120.881 42.379 120.633 43.1097 120.633C44.3275 120.633 45.3017 120.881 46.2759 121.624C47.2501 122.367 47.9808 123.358 48.7114 124.101C49.6856 122.862 50.1727 121.376 50.1727 119.642C49.9292 115.927 46.763 112.706 46.763 108.991C46.763 107.257 47.2501 105.028 48.4679 103.789C49.4421 102.55 50.9034 101.56 52.3647 100.569C51.8776 98.3394 52.1212 95.8624 53.0954 93.8807C53.3389 93.3853 53.5825 93.1376 54.0696 92.8899C54.8003 92.6422 55.5309 93.3853 56.018 93.8807C56.7487 94.8716 56.9922 95.8624 57.2358 96.8532C57.2358 97.3486 57.2358 97.5963 57.4793 98.0917C57.7229 98.3394 57.9664 98.8349 58.21 98.8349C60.1584 94.8716 57.7229 89.1743 59.4278 85.211C60.1584 83.7248 61.1326 82.7339 62.3504 81.4954C63.3246 80.5046 63.8117 80.2569 65.273 80.0092C63.5682 85.211 63.0811 90.9083 63.8117 96.6055C65.0295 104.532 71.6054 111.22 75.7458 118.404L80.3733 123.606L75.5023 121.376C74.528 124.349 75.7458 128.807 74.0409 131.532C72.5796 133.761 69.1699 134.752 68.4392 137.229C67.465 140.697 66.4908 144.165 65.273 147.633C64.7859 148.872 64.5424 150.358 65.0295 151.349C62.1068 154.569 56.7487 156.798 52.6083 155.312C52.3647 153.083 53.826 151.101 55.2874 149.615C57.9664 146.395 58.21 143.174 58.21 139.211C58.21 135.991 57.4793 132.771 57.7229 129.55C57.9664 126.33 57.9664 122.615 56.2616 119.89C55.5309 118.651 54.3131 117.413 53.826 116.174C54.3131 118.899 54.5567 121.624 53.5825 124.101C53.0954 125.339 52.1212 126.578 51.3905 127.817C49.9292 130.294 49.4421 133.266 49.6856 136.239C49.6856 139.211 50.4163 141.936 51.147 144.661C48.7114 147.633 46.5194 151.349 46.2759 155.064C42.6226 155.064 38.4822 155.064 34.8289 155.064C34.3418 155.064 33.6111 155.064 33.124 154.817C32.3934 154.321 32.3934 153.33 32.6369 152.587C32.8805 151.844 33.3676 151.101 33.8547 150.605C36.2902 147.385 37.508 143.67 37.7515 139.706C37.7515 137.725 39.2129 135.991 40.4306 134.257L39.7 117.165ZM293.482 158.037C292.021 157.294 291.29 155.807 290.316 154.569C288.368 154.073 285.689 154.569 283.74 154.569C281.548 154.569 279.6 154.073 277.651 153.083C275.703 152.092 274.242 150.358 274.242 148.128C275.703 147.385 275.703 144.661 274.972 142.927C274.242 141.44 273.024 140.202 271.562 139.211C270.101 138.22 268.883 137.229 268.153 135.743L267.666 134.257C266.691 131.532 264.499 129.055 264.743 126.083C265.23 122.119 266.448 118.651 267.422 114.688C268.396 110.972 268.64 106.761 266.935 103.294C267.178 101.807 269.37 101.064 270.832 101.807C272.293 102.55 273.024 104.037 273.754 105.523C276.921 111.468 281.548 116.67 287.15 120.633L289.342 117.908L285.932 131.284H285.689C286.419 132.771 287.88 133.761 289.098 135C291.534 137.725 292.508 141.936 291.29 145.404C291.534 145.156 292.508 145.899 292.752 145.651C296.405 149.367 300.058 153.33 305.173 154.569C303.224 155.064 301.519 156.303 299.571 157.294C297.623 158.532 295.431 159.028 293.482 158.037Z" fill="white"/>
</svg>
