<svg width="18" height="16" viewBox="0 0 18 16" fill="none" xmlns="http://www.w3.org/2000/svg">
<path d="M1.44444 9.20001C1.03519 9.20001 0.692371 9.07564 0.416 8.82691C0.138667 8.57731 0 8.26834 0 7.90001C0 7.53167 0.138667 7.22271 0.416 6.97311C0.692371 6.72437 1.03519 6.60001 1.44444 6.60001H16.5556C16.9648 6.60001 17.3076 6.72437 17.584 6.97311C17.8613 7.22271 18 7.53167 18 7.90001C18 8.26834 17.8613 8.57731 17.584 8.82691C17.3076 9.07564 16.9648 9.20001 16.5556 9.20001H1.44444Z" fill="white"/>
<path d="M1.44444 2.6C1.03519 2.6 0.692371 2.47563 0.416 2.2269C0.138667 1.9773 0 1.66833 0 1.3C0 0.931667 0.138667 0.6227 0.416 0.3731C0.692371 0.124367 1.03519 0 1.44444 0H16.5556C16.9648 0 17.3076 0.124367 17.584 0.3731C17.8613 0.6227 18 0.931667 18 1.3C18 1.66833 17.8613 1.9773 17.584 2.2269C17.3076 2.47563 16.9648 2.6 16.5556 2.6H1.44444Z" fill="white"/>
<path d="M1.44444 15.8C1.03519 15.8 0.692371 15.6756 0.416 15.4269C0.138667 15.1773 0 14.8683 0 14.5C0 14.1317 0.138667 13.8227 0.416 13.5731C0.692371 13.3244 1.03519 13.2 1.44444 13.2H16.5556C16.9648 13.2 17.3076 13.3244 17.584 13.5731C17.8613 13.8227 18 14.1317 18 14.5C18 14.8683 17.8613 15.1773 17.584 15.4269C17.3076 15.6756 16.9648 15.8 16.5556 15.8H1.44444Z" fill="white"/>
</svg>
